# xmcd
#
# Track frame offsets: 
#        150
#        12651
#        25077
#        37569
#        54096
#        74201
#        90983
#        113318
#        133911
#        153150
#        171762
#        191940
#
# Disc length: 2777 seconds
#
# Revision: 1
# Processed by: cddbd v1.5.2PL0 Copyright (c) Steve Scherf et al.
# Submitted via: ExactAudioCopy v1.0b1
#
DISCID=910ad70c
DTITLE=Reba McEntire - Best of Reba McEntire
DYEAR=2006
DGENRE=Country
TTITLE0=(You Lift Me) Up to Heaven
TTITLE1=I'm Not That Lonely Yet
TTITLE2=Have I Got a Deal for You
TTITLE3=Only in My Mind
TTITLE4=Let the Music Lift You Up
TTITLE5=Til Loves Comes Again
TTITLE6=Fancy
TTITLE7=Fallin' Out of Love
TTITLE8=The Night the Lights Went Out in Georgia
TTITLE9=What If It's You
TTITLE10=I'll Be
TTITLE11=He Gets That From Me
EXTD=YEAR: 2006
EXTT0=
EXTT1=
EXTT2=
EXTT3=
EXTT4=
EXTT5=
EXTT6=
EXTT7=
EXTT8=
EXTT9=
EXTT10=
EXTT11=
PLAYORDER=
